<?xml version="1.0" encoding="UTF-8" standalone="no"?><!DOCTYPE svg PUBLIC "-//W3C//DTD SVG 1.1//EN" "http://www.w3.org/Graphics/SVG/1.1/DTD/svg11.dtd"><svg width="100%" height="100%" viewBox="0 0 105 105" version="1.1" xmlns="http://www.w3.org/2000/svg" xmlns:xlink="http://www.w3.org/1999/xlink" xml:space="preserve" xmlns:serif="http://www.serif.com/" style="fill-rule:evenodd;clip-rule:evenodd;stroke-linejoin:round;stroke-miterlimit:2;"><path d="M55.399,0.109c-31.345,-2.004 -57.294,23.944 -55.29,55.29c1.656,25.909 22.584,46.836 48.493,48.493c31.345,2.004 57.294,-23.944 55.29,-55.29c-1.657,-25.909 -22.585,-46.837 -48.493,-48.493Zm20.146,77.693c2.045,-7.026 3.266,-15.108 3.43,-23.802l20.975,-0c-0.46,11.147 -4.739,21.319 -11.561,29.251c-3.13,-2.193 -7.505,-4.047 -12.844,-5.449Zm-59.933,5.449c-6.822,-7.932 -11.102,-18.104 -11.561,-29.251l20.975,-0c0.163,8.694 1.384,16.776 3.43,23.802c-5.341,1.403 -9.716,3.256 -12.844,5.449Zm12.833,-57.018c-2.04,7.019 -3.257,15.088 -3.42,23.767l-20.974,-0c0.457,-11.094 4.698,-21.222 11.463,-29.138c3.183,2.157 7.589,3.985 12.931,5.371Zm21.555,23.767l-20.975,-0c0.172,-8.277 1.403,-16.09 3.414,-22.848c5.406,1.09 11.401,1.711 17.561,1.823l-0,21.025Zm-0,4l-0,21.026c-6.173,0.112 -12.167,0.742 -17.553,1.846c-2.016,-6.764 -3.249,-14.585 -3.422,-22.872l20.975,-0Zm4,-0l20.975,-0c-0.172,8.287 -1.406,16.108 -3.421,22.872c-5.389,-1.104 -11.382,-1.734 -17.554,-1.846l-0,-21.026Zm-0,-4l-0,-21.026c6.16,-0.111 12.155,-0.733 17.561,-1.823c2.011,6.759 3.242,14.572 3.414,22.849l-20.975,-0Zm-0,-25.025l-0,-20.773c6.569,1.247 12.446,8.542 16.3,19.128c-5.026,0.98 -10.585,1.538 -16.3,1.645Zm-4,-20.773l-0,20.773c-5.715,-0.107 -11.274,-0.665 -16.3,-1.645c3.854,-10.586 9.731,-17.882 16.3,-19.128Zm-0,74.824l-0,20.773c-6.565,-1.246 -12.438,-8.532 -16.292,-19.106c5.009,-0.994 10.566,-1.559 16.292,-1.667Zm4,20.772l-0,-20.772c5.725,0.108 11.281,0.673 16.292,1.667c-3.854,10.573 -9.727,17.86 -16.292,19.105Zm24.975,-49.798c-0.163,-8.679 -1.38,-16.748 -3.419,-23.767c5.342,-1.387 9.748,-3.214 12.93,-5.371c6.765,7.915 11.006,18.044 11.463,29.138l-20.974,-0Zm6.746,-32.121c-2.8,1.774 -6.718,3.339 -11.387,4.537c-2.51,-7.096 -5.917,-12.87 -9.931,-16.783c8.163,2.186 15.475,6.472 21.318,12.246Zm-56.054,4.538c-4.669,-1.198 -8.587,-2.763 -11.387,-4.537c5.842,-5.775 13.155,-10.06 21.319,-12.246c-4.015,3.912 -7.423,9.687 -9.932,16.783Zm-11.286,63.801c2.74,-1.8 6.628,-3.387 11.298,-4.6c2.508,7.08 5.911,12.842 9.919,16.749c-8.117,-2.174 -15.391,-6.425 -21.217,-12.149Zm55.94,-4.6c4.669,1.213 8.558,2.8 11.298,4.6c-5.826,5.725 -13.099,9.976 -21.217,12.149c4.008,-3.907 7.41,-9.669 9.919,-16.749Z" style="fill-opacity:0.5;fill-rule:nonzero;"/></svg>